HIERARCHY
ROOT Hips
{
	OFFSET 0.00000 0.00000 0.00000
	CHANNELS 6 Xposition Yposition Zposition Zrotation Yrotation Xrotation 
	JOINT LHipJoint
	{
		OFFSET 0 0 0
		CHANNELS 3 Zrotation Yrotation Xrotation
		JOINT LeftHip
		{
			OFFSET 1.53927 -1.56553 0.51726
			CHANNELS 3 Zrotation Yrotation Xrotation
			JOINT LeftKnee
			{
				OFFSET 2.38199 -6.54447 0.00000
				CHANNELS 3 Zrotation Yrotation Xrotation
				JOINT LeftAnkle
				{
					OFFSET 2.35499 -6.47028 0.00000
					CHANNELS 3 Zrotation Yrotation Xrotation
					JOINT LeftToe
					{
						OFFSET 0.13641 -0.37478 1.84251
						CHANNELS 3 Zrotation Yrotation Xrotation
						End Site
						{
							OFFSET 0.00000 -0.00000 0.95212
						}
					}
				}
			}
		}
	}
	JOINT RHipJoint
	{
		OFFSET 0 0 0
		CHANNELS 3 Zrotation Yrotation Xrotation
		JOINT RightHip
		{
			OFFSET -1.43919 -1.56553 0.51726
			CHANNELS 3 Zrotation Yrotation Xrotation
			JOINT RightKnee
			{
				OFFSET -2.34860 -6.45274 0.00000
				CHANNELS 3 Zrotation Yrotation Xrotation
				JOINT RightAnkle
				{
					OFFSET -2.25563 -6.19730 0.00000
					CHANNELS 3 Zrotation Yrotation Xrotation
					JOINT RightToe
					{
						OFFSET -0.19755 -0.54277 1.84912
						CHANNELS 3 Zrotation Yrotation Xrotation
						End Site
						{
							OFFSET -0.00000 -0.00000 0.97032
						}
					}
				}
			}
		}
	}
	JOINT lowerback
	{
		OFFSET 0 0 0
		CHANNELS 3 Zrotation Yrotation Xrotation
		JOINT Chest
		{
			OFFSET -0.06402 1.88434 -0.00445
			CHANNELS 3 Zrotation Yrotation Xrotation
			JOINT Chest2
			{
				OFFSET 0.00756 1.88511 0.04237
				CHANNELS 3 Zrotation Yrotation Xrotation
				JOINT lowerneck
				{
					OFFSET 0 0 0
					CHANNELS 3 Zrotation Yrotation Xrotation
					JOINT Neck
					{
						OFFSET -0.06230 1.34710 0.03308
						CHANNELS 3 Zrotation Yrotation Xrotation
						JOINT Head
						{
							OFFSET -0.02442 1.34501 -0.13654
							CHANNELS 3 Zrotation Yrotation Xrotation
							End Site
							{
								OFFSET -0.00508 1.35584 -0.05075
							}
						}
					}
				}
				JOINT LeftCollar
				{
					OFFSET 0 0 0
					CHANNELS 3 Zrotation Yrotation Xrotation
					JOINT LeftShoulder
					{
						OFFSET 2.76911 0.54460 0.39412
CHANNELS 3 Zrotation Xrotation Yrotation
						JOINT LeftElbow
						{
OFFSET 0 -4.409190 -0.000000
CHANNELS 3 Zrotation Xrotation Yrotation
							JOINT LeftWrist
							{
OFFSET 0 -3.038570 -0.000000
CHANNELS 3 Zrotation Xrotation Yrotation
								JOINT lhand
								{
									OFFSET 0 0 0
CHANNELS 3 Zrotation Xrotation Yrotation
									JOINT LFingers
									{
OFFSET 0 -0.523210 -0.000000
CHANNELS 3 Zrotation Xrotation Yrotation
										End Site
										{
OFFSET 0 -0.421820 -0.000000
										}
									}
								}
								JOINT LThumb
								{
OFFSET 0 0.000000 0.000000
CHANNELS 3 Zrotation Xrotation Yrotation
									End Site
									{
OFFSET 0 -0.428260 0.428260
									}
								}
							}
						}
					}
				}
				JOINT RightCollar
				{
					OFFSET 0 0 0
					CHANNELS 3 Zrotation Yrotation Xrotation
					JOINT RightShoulder
					{
						OFFSET -2.99050 0.75949 0.48975
CHANNELS 3 Zrotation Xrotation Yrotation
						JOINT RightElbow
						{
OFFSET 0 -4.619690 -0.000000
CHANNELS 3 Zrotation Xrotation Yrotation
							JOINT RightWrist
							{
OFFSET 0 -3.093820 -0.000000
CHANNELS 3 Zrotation Xrotation Yrotation
								JOINT rhand
								{
									OFFSET 0 0 0
CHANNELS 3 Zrotation Xrotation Yrotation
									JOINT RFingers
									{
OFFSET 0 -0.500900 -0.000000
CHANNELS 3 Zrotation Xrotation Yrotation
										End Site
										{
OFFSET 0 -0.403840 -0.000000
										}
									}
								}
								JOINT RThumb
								{
OFFSET 0 0.000000 0.000000
CHANNELS 3 Zrotation Xrotation Yrotation
									End Site
									{
OFFSET 0 -0.410000 0.410000
									}
								}
							}
						}
					}
				}
			}
		}
	}
}
MOTION
Frames: 9
Frame Time: 0.008333333333333333
7.385859 16.422706 -1.853267 -194.922933 -79.096427 200.058102 0.000000 0.000000 0.000000 -15.343957 -10.709695 -3.964165 1.013795 6.406067 17.967180 -1.911290 24.076779 -14.667682 0.383933 3.979090 11.017753 0.000000 0.000000 0.000000 21.474249 11.727500 5.021459 -0.019510 -0.900881 2.476038 0.128679 -11.228993 -13.947674 -1.529082 -7.805406 22.125637 -4.080050 0.745702 -7.702360 -0.032385 1.068352 -4.851746 2.329178 0.549372 -0.784681 6.272015 9.940737 -0.817604 -3.475908 13.315112 23.468003 -1.213371 6.305093 8.063883 0.000000 0.000000 0.000000 -1.360048 27.053514 -24.494320 106.128016 -58.993318 73.920023 38.343457 -31.789734 -14.573525 0.000000 0.000000 0.000000 -7.125000 0.000000 0.000000 10.557052 48.033717 -0.798141 0.000000 0.000000 0.000000 -1.612862 12.039594 36.305394 -55.523824 -54.993984 -30.644620 -23.177661 -0.551375 49.074434 0.000000 0.000000 0.000000 7.125000 0.000000 0.000000 43.823401 78.537551 -35.261314
7.394081 16.422608 -1.848926 -194.537214 -78.906570 199.616935 0.000000 0.000000 0.000000 -15.355020 -10.417112 -4.047667 1.031389 6.459808 18.124532 -1.894218 23.998976 -14.723810 0.375068 3.933191 10.888863 0.000000 0.000000 0.000000 21.500832 11.739764 5.512629 -0.007618 -0.562774 1.546559 0.210103 -11.648107 -13.183446 -1.308137 -7.245136 20.443668 -3.997095 0.787997 -7.713035 -0.075073 1.120032 -4.842393 2.242256 0.572303 -0.769481 6.487615 9.982435 -0.800759 -3.482814 13.348550 24.170204 -1.234686 6.311980 8.319970 0.000000 0.000000 0.000000 -1.164725 26.994649 -24.801338 108.595608 -58.651057 76.031253 39.143500 -33.024196 -14.411659 0.000000 0.000000 0.000000 -7.125000 0.000000 0.000000 11.356809 47.982408 -0.849792 0.000000 0.000000 0.000000 -1.296910 11.403243 37.000416 -56.778769 -55.387738 -31.675188 -22.900836 -2.276996 49.504326 0.000000 0.000000 0.000000 7.125000 0.000000 0.000000 45.895227 78.662636 -37.133857
7.403725 16.423508 -1.844267 -194.210930 -78.691346 199.245793 0.000000 0.000000 0.000000 -15.388846 -10.344010 -3.976761 1.016901 6.415588 17.995134 -1.956051 24.276864 -14.494471 0.343658 3.763318 10.412173 0.000000 0.000000 0.000000 21.504814 12.073058 5.312501 -0.013972 -0.761039 2.091636 0.185025 -11.533030 -13.451229 -1.337521 -7.322588 20.674781 -3.951109 0.755806 -7.631593 -0.126928 1.067411 -4.888488 2.157688 0.545555 -0.856406 6.804709 10.075662 -0.939908 -3.450745 13.433435 24.929854 -1.244056 6.352629 8.635315 0.000000 0.000000 0.000000 -1.160716 26.837820 -24.738118 110.608833 -58.332150 77.747744 40.912107 -32.944254 -15.301255 0.000000 0.000000 0.000000 -7.125000 0.000000 0.000000 13.249996 49.417576 -1.468374 0.000000 0.000000 0.000000 -1.014095 11.031133 38.031922 -58.558173 -55.912518 -33.144333 -23.243528 -3.600974 50.088675 0.000000 0.000000 0.000000 7.125000 0.000000 0.000000 48.223590 79.115822 -39.530071
7.406352 16.423521 -1.834711 -194.369962 -78.415455 199.258117 0.000000 0.000000 0.000000 -15.624947 -10.459480 -3.616604 0.995698 6.350319 17.804209 -2.053017 24.780099 -14.585879 0.323359 3.655001 10.108064 0.000000 0.000000 0.000000 21.380385 12.380545 5.243388 -0.021970 -0.956154 2.628030 0.165853 -11.479543 -13.709738 -1.288083 -7.191606 20.284159 -4.010508 0.812144 -7.623765 -0.161672 1.147618 -4.851152 2.160528 0.585980 -0.828071 6.604908 9.993204 -1.364855 -3.007412 13.210724 25.907007 -1.051026 6.230360 8.993568 0.000000 0.000000 0.000000 -1.134242 26.545438 -24.915797 112.340553 -58.027447 79.219375 44.024843 -26.669723 -22.056431 0.000000 0.000000 0.000000 -7.125000 0.000000 0.000000 17.808388 58.483371 -6.000564 0.000000 0.000000 0.000000 -0.714105 10.443705 38.682503 -59.948747 -56.296256 -34.298438 -23.367986 -5.063694 50.161818 0.000000 0.000000 0.000000 7.125000 0.000000 0.000000 48.466365 79.206074 -39.818500
7.413166 16.423724 -1.829402 -193.377791 -78.259798 198.294202 0.000000 0.000000 0.000000 -15.483764 -10.395532 -3.613688 0.985467 6.318653 17.711753 -2.091954 24.980671 -14.637488 0.310905 3.580839 9.900631 0.000000 0.000000 0.000000 21.521914 12.552019 5.380135 -0.017528 -0.854024 2.347305 0.186130 -11.591798 -13.534774 -1.302589 -7.230347 20.399617 -3.861272 0.820996 -7.588927 -0.089332 1.142199 -4.948504 2.149552 0.582744 -0.945750 5.806849 9.922729 -1.173968 -2.247718 12.990156 26.342856 -0.705868 6.105122 8.984785 0.000000 0.000000 0.000000 -1.160784 26.513564 -25.080532 114.051373 -57.696531 80.667902 43.067409 -32.649382 -15.823018 0.000000 0.000000 0.000000 -7.125000 0.000000 0.000000 15.606822 50.521937 -2.168802 0.000000 0.000000 0.000000 -0.575213 10.304282 39.378407 -61.898081 -56.794109 -35.925070 -22.697067 -7.401042 47.640003 0.000000 0.000000 0.000000 7.125000 0.000000 0.000000 38.895872 77.435941 -30.323629
7.415633 16.428525 -1.826832 -193.042150 -77.969033 197.836860 0.000000 0.000000 0.000000 -15.567421 -10.378449 -3.323074 0.976265 6.290086 17.628425 -2.106615 25.110346 -15.003273 0.370502 3.908855 10.820454 0.000000 0.000000 0.000000 21.482408 12.711048 5.772321 -0.013415 -0.748488 2.056958 0.155673 -11.333832 -13.644490 -1.634476 -8.054976 22.883502 -3.802485 0.919717 -7.501144 -0.147464 1.268500 -4.918753 2.063172 0.644582 -0.968302 5.895831 9.867259 -1.719501 -2.121213 12.845591 27.335580 -0.643413 6.016066 9.429516 0.000000 0.000000 0.000000 -0.970157 26.464589 -25.486826 116.108100 -57.259889 82.402192 45.588513 -27.344508 -21.025334 0.000000 0.000000 0.000000 -7.125000 0.000000 0.000000 19.783397 57.645627 -6.475848 0.000000 0.000000 0.000000 -0.237038 9.937555 39.927524 -63.803252 -57.239981 -37.523351 -22.672153 -8.845548 47.633026 0.000000 0.000000 0.000000 7.125000 0.000000 0.000000 38.983190 77.408036 -30.400254
7.428553 16.431001 -1.817475 -192.308494 -78.044285 197.134124 0.000000 0.000000 0.000000 -15.381568 -10.468724 -3.426997 0.981052 6.304737 17.671247 -2.122973 25.168835 -14.871941 0.374029 3.927398 10.872605 0.000000 0.000000 0.000000 21.627455 12.686891 5.759495 -0.011613 -0.692727 1.903789 0.167282 -11.374544 -13.500962 -1.667676 -8.136479 23.129313 -3.558566 0.912900 -7.335662 -0.169440 1.231847 -5.037075 1.897290 0.623574 -1.172667 6.175963 9.712227 -1.592256 -2.283720 12.617342 27.858101 -0.763669 5.897480 9.617290 0.000000 0.000000 0.000000 -0.805822 26.393500 -25.907013 117.995125 -56.820344 83.985572 51.677113 -13.181989 -33.623597 0.000000 0.000000 0.000000 -7.125000 0.000000 0.000000 38.281610 74.092087 -27.433141 0.000000 0.000000 0.000000 0.039856 9.586057 40.507646 -65.710030 -57.648305 -39.130461 -21.997262 -9.301836 53.122627 0.000000 0.000000 0.000000 7.125000 0.000000 0.000000 64.305780 79.706061 -54.599023
7.439988 16.432070 -1.813725 -191.492564 -78.072076 196.418427 0.000000 0.000000 0.000000 -15.141192 -10.585496 -3.668164 1.009294 6.392399 17.927378 -2.046493 24.896553 -15.468860 0.449695 4.301947 11.927899 0.000000 0.000000 0.000000 21.767277 12.385001 6.505254 0.000000 0.000000 0.000000 0.262062 -11.801784 -12.429092 -1.652329 -8.099690 23.017989 -3.509512 0.773256 -7.394898 -0.050095 1.042276 -5.085133 1.982245 0.528976 -1.180032 6.170444 9.727188 -1.838508 -2.128576 12.572220 28.572763 -0.690539 5.859685 9.911522 0.000000 0.000000 0.000000 -1.121032 26.474756 -25.738349 120.207710 -56.253887 85.831598 48.357930 -20.949039 -28.083864 0.000000 0.000000 0.000000 -7.125000 0.000000 0.000000 26.582944 66.950478 -14.656113 0.000000 0.000000 0.000000 0.079986 9.255741 41.511340 -68.025058 -58.093974 -41.090987 -23.039657 -9.645206 52.858741 0.000000 0.000000 0.000000 7.125000 0.000000 0.000000 62.588054 80.112527 -53.364736
7.444533 16.427449 -1.807344 -191.516810 -77.825307 196.487922 0.000000 0.000000 0.000000 -15.250135 -10.465805 -3.770319 1.016289 6.413766 17.989770 -2.111895 25.170540 -15.213906 0.380633 3.962188 10.970267 0.000000 0.000000 0.000000 21.703033 12.659323 6.460823 0.000000 0.000000 0.000000 0.297339 -12.080508 -12.241679 -1.369737 -7.403875 20.918950 -3.569773 0.828005 -7.560734 -0.073039 1.126181 -5.037640 2.000696 0.569040 -1.045360 5.769615 9.641444 -2.176632 -1.529572 12.317354 29.059387 -0.424605 5.741065 10.069021 0.000000 0.000000 0.000000 -1.183622 26.356207 -25.983376 122.012907 -55.748709 87.328205 52.862560 -13.961618 -32.368327 0.000000 0.000000 0.000000 -7.125000 0.000000 0.000000 40.288719 73.024278 -28.213680 0.000000 0.000000 0.000000 0.301809 9.030679 41.951931 -70.524180 -58.515924 -43.217641 -20.888149 -12.134345 53.620123 0.000000 0.000000 0.000000 7.125000 0.000000 0.000000 67.049190 79.399227 -56.799022
